<svg xmlns="http://www.w3.org/2000/svg" version="1.1" xmlns:xlink="http://www.w3.org/1999/xlink" xmlns:svgjs="http://svgjs.dev/svgjs" width="1500" height="590" viewBox="0 0 1500 590"><g transform="matrix(1,0,0,1,-0.9090909090909918,0.14067890735037736)"><svg viewBox="0 0 396 156" data-background-color="#ffffff" preserveAspectRatio="xMidYMid meet" height="590" width="1500" xmlns="http://www.w3.org/2000/svg" xmlns:xlink="http://www.w3.org/1999/xlink"><g id="tight-bounds" transform="matrix(1,0,0,1,0.2400000000000091,-0.03719645685873729)"><svg viewBox="0 0 395.52 156.07439291371747" height="156.07439291371747" width="395.52"><g><svg viewBox="0 0 566.0881359129774 223.38152848977532" height="156.07439291371747" width="395.52"><g transform="matrix(1,0,0,1,168.5905359129774,55.55572532159966)"><svg viewBox="0 0 397.4975999999999 112.270077846576" height="112.270077846576" width="397.4975999999999"><g id="textblocktransform"><svg viewBox="0 0 397.4975999999999 112.270077846576" height="112.270077846576" width="397.4975999999999" id="textblock"><g><rect width="397.4975999999999" height="5.6289196553759995" x="0" y="69.0489262956" fill="#6b7280" opacity="1" stroke-width="0" stroke="transparent" fill-opacity="1" class="rect-yte-0" data-fill-palette-color="primary" rx="1%" id="yte-0" data-palette-color="#6b7280"></rect></g><g transform="matrix(1,0,0,1,0.9887999999999693,0)"><svg viewBox="0 0 395.52 62.418" height="62.418" width="395.52"><g transform="matrix(1,0,0,1,0,0)"><svg width="395.52" viewBox="2.1 -36.85 287.96999999999997 45.45" height="62.418" data-palette-color="#6b7280"><path d="M9.95 0.4L9.95 0.4Q8.15 0.4 5.93 0 3.7-0.4 2.1-1L2.1-1 2.1-4.7 4.3-4.2Q4.95-3.75 6.38-3.28 7.8-2.8 9.7-2.8L9.7-2.8Q12.55-2.8 13.9-3.98 15.25-5.15 15.25-6.85L15.25-6.85Q15.25-8.35 14.35-9.15 13.45-9.95 11.95-10.45 10.45-10.95 8.7-11.5L8.7-11.5Q6.9-12.1 5.4-12.9 3.9-13.7 3-14.98 2.1-16.25 2.1-18.2L2.1-18.2Q2.1-20.45 3.28-22.15 4.45-23.85 6.48-24.8 8.5-25.75 11.05-25.75L11.05-25.75Q12.5-25.75 14.28-25.4 16.05-25.05 18.15-24.35L18.15-24.35 18.15-21.35 15.5-21.7Q14.45-22 13.38-22.2 12.3-22.4 11.3-22.4L11.3-22.4Q9.85-22.4 8.72-21.95 7.6-21.5 6.95-20.7 6.3-19.9 6.3-18.85L6.3-18.85Q6.3-17.45 7.38-16.63 8.45-15.8 10-15.3 11.55-14.8 12.95-14.35L12.95-14.35Q14.6-13.85 16.07-13.05 17.55-12.25 18.5-10.95 19.45-9.65 19.45-7.55L19.45-7.55Q19.45-5.3 18.28-3.5 17.1-1.7 14.98-0.65 12.85 0.4 9.95 0.4ZM15.45-18.65L14.95-22.4 18.15-21.75 18.15-17.85 16.5-17.85Q16-17.85 15.75-18.07 15.5-18.3 15.45-18.65L15.45-18.65ZM4.8-6.8L5.3-3.05 2.1-3.7 2.1-7.6 3.75-7.6Q4.3-7.6 4.53-7.38 4.75-7.15 4.8-6.8L4.8-6.8ZM33.7 0.4L33.7 0.4Q30.95 0.4 29.05-0.83 27.15-2.05 26.17-4.2 25.2-6.35 25.2-9.2L25.2-9.2 25.2-25.35 29.65-25.35 29.65-9.2Q29.65-6.3 30.97-4.73 32.3-3.15 35-3.15L35-3.15Q36.95-3.15 38.67-4.08 40.4-5 41.85-6.65L41.85-6.65 41.85-25.35 46.3-25.35 46.3 0 43.65 0Q42.65 0 42.45-0.95L42.45-0.95 42.1-3.65Q40.45-1.85 38.4-0.73 36.35 0.4 33.7 0.4ZM49.9 0L44.8 0 45.35-3.9 49.1-3.1Q49.5-3.05 49.7-2.78 49.9-2.5 49.9-2.05L49.9-2.05 49.9 0ZM21.6-25.35L26.7-25.35 26.15-21.45 22.4-22.25Q22-22.35 21.8-22.6 21.6-22.85 21.6-23.3L21.6-23.3 21.6-25.35ZM38.25-25.35L43.35-25.35 42.8-21.45 39.05-22.25Q38.65-22.35 38.45-22.6 38.25-22.85 38.25-23.3L38.25-23.3 38.25-25.35ZM60 8.6L55.55 8.6 55.55-25.35 58.2-25.35Q59.2-25.35 59.4-24.4L59.4-24.4 59.8-21.4Q61.4-23.4 63.5-24.6 65.59-25.8 68.3-25.8L68.3-25.8Q71.4-25.8 73.55-24.2 75.7-22.6 76.8-19.7 77.9-16.8 77.9-12.85L77.9-12.85Q77.9-9.2 76.59-6.2 75.3-3.2 72.84-1.43 70.4 0.35 66.95 0.35L66.95 0.35Q64.59 0.35 62.95-0.43 61.3-1.2 60-2.65L60-2.65 60 8.6ZM65.95-3.1L65.95-3.1Q68.34-3.1 69.97-4.23 71.59-5.35 72.45-7.55 73.3-9.75 73.3-12.85L73.3-12.85Q73.3-17.45 71.7-19.83 70.09-22.2 66.84-22.2L66.84-22.2Q64.65-22.2 63.02-21.2 61.4-20.2 60-18.35L60-18.35 60-6.1Q61.25-4.45 62.7-3.78 64.15-3.1 65.95-3.1ZM51.95-25.35L57.05-25.35 56.5-21.45 52.75-22.25Q52.34-22.35 52.15-22.6 51.95-22.85 51.95-23.3L51.95-23.3 51.95-25.35ZM57.05 8.6L51.95 8.6 51.95 6.55Q51.95 6.1 52.15 5.83 52.34 5.55 52.75 5.5L52.75 5.5 56.5 4.7 57.05 8.6ZM63.59 8.6L58.5 8.6 59.05 4.7 62.8 5.5Q63.2 5.55 63.4 5.83 63.59 6.1 63.59 6.55L63.59 6.55 63.59 8.6ZM93.39 0.35L93.39 0.35Q89.74 0.35 87.02-1.3 84.29-2.95 82.79-6 81.29-9.05 81.29-13.2L81.29-13.2Q81.29-16.75 82.74-19.6 84.19-22.45 86.87-24.1 89.54-25.75 93.14-25.75L93.14-25.75Q96.29-25.75 98.64-24.35 100.99-22.95 102.32-20.43 103.64-17.9 103.64-14.4L103.64-14.4Q103.64-13.35 103.42-13 103.19-12.65 102.54-12.65L102.54-12.65 85.69-12.65Q85.69-12.5 85.69-12.33 85.69-12.15 85.69-12L85.69-12Q85.94-7.8 88.04-5.48 90.14-3.15 93.74-3.15L93.74-3.15Q95.29-3.15 96.82-3.78 98.34-4.4 99.52-5 100.69-5.6 101.19-5.6L101.19-5.6Q101.74-5.6 102.04-5.2L102.04-5.2 103.29-3.55Q102.29-2.25 100.62-1.38 98.94-0.5 97.04-0.08 95.14 0.35 93.39 0.35ZM85.84-15.45L85.84-15.45 99.64-15.45Q99.64-18.55 97.94-20.5 96.24-22.45 93.24-22.45L93.24-22.45Q89.99-22.45 88.14-20.6 86.29-18.75 85.84-15.45ZM114.79 0L110.34 0 110.34-36.85 114.79-36.85 114.79 0ZM111.84 0L106.74 0 106.74-2.05Q106.74-2.5 106.94-2.78 107.14-3.05 107.54-3.1L107.54-3.1 111.29-3.9 111.84 0ZM118.39 0L113.29 0 113.84-3.9 117.59-3.1Q117.99-3.05 118.19-2.78 118.39-2.5 118.39-2.05L118.39-2.05 118.39 0ZM106.74-36.85L111.84-36.85 111.29-32.95 107.54-33.75Q107.14-33.85 106.94-34.1 106.74-34.35 106.74-34.8L106.74-34.8 106.74-36.85ZM128.74 0L124.29 0 124.29-36.85 128.74-36.85 128.74 0ZM125.79 0L120.69 0 120.69-2.05Q120.69-2.5 120.89-2.78 121.09-3.05 121.49-3.1L121.49-3.1 125.24-3.9 125.79 0ZM132.34 0L127.24 0 127.79-3.9 131.54-3.1Q131.94-3.05 132.14-2.78 132.34-2.5 132.34-2.05L132.34-2.05 132.34 0ZM120.69-36.85L125.79-36.85 125.24-32.95 121.49-33.75Q121.09-33.85 120.89-34.1 120.69-34.35 120.69-34.8L120.69-34.8 120.69-36.85ZM147.04 0.35L147.04 0.35Q143.39 0.35 140.66-1.3 137.94-2.95 136.44-6 134.94-9.05 134.94-13.2L134.94-13.2Q134.94-16.75 136.39-19.6 137.84-22.45 140.51-24.1 143.19-25.75 146.79-25.75L146.79-25.75Q149.94-25.75 152.29-24.35 154.64-22.95 155.96-20.43 157.29-17.9 157.29-14.4L157.29-14.4Q157.29-13.35 157.06-13 156.84-12.65 156.19-12.65L156.19-12.65 139.34-12.65Q139.34-12.5 139.34-12.33 139.34-12.15 139.34-12L139.34-12Q139.59-7.8 141.69-5.48 143.79-3.15 147.39-3.15L147.39-3.15Q148.94-3.15 150.46-3.78 151.99-4.4 153.16-5 154.34-5.6 154.84-5.6L154.84-5.6Q155.39-5.6 155.69-5.2L155.69-5.2 156.94-3.55Q155.94-2.25 154.26-1.38 152.59-0.5 150.69-0.08 148.79 0.35 147.04 0.35ZM139.49-15.45L139.49-15.45 153.29-15.45Q153.29-18.55 151.59-20.5 149.89-22.45 146.89-22.45L146.89-22.45Q143.64-22.45 141.79-20.6 139.94-18.75 139.49-15.45ZM163.38 0L159.38 0 168.28-13 159.73-25.35 164.03-25.35Q164.58-25.35 164.83-25.18 165.08-25 165.28-24.65L165.28-24.65 171.48-15.15Q171.58-15.5 171.76-15.85 171.93-16.2 172.13-16.55L172.13-16.55 177.58-24.55Q177.83-24.9 178.08-25.13 178.33-25.35 178.68-25.35L178.68-25.35 182.78-25.35 174.28-13.25 183.13 0 178.88 0Q178.33 0 178.03-0.3 177.73-0.6 177.48-0.95L177.48-0.95 171.13-10.85Q171.03-10.5 170.91-10.18 170.78-9.85 170.58-9.55L170.58-9.55 164.68-0.95Q164.48-0.6 164.18-0.3 163.88 0 163.38 0L163.38 0ZM166.53-23.45L162.83-23.45 162.83-25.35 166.53-25.35 166.53-23.45ZM180.18-23.45L176.48-23.45 176.48-25.35 180.18-25.35 180.18-23.45ZM176.38-1.9L180.08-1.9 180.08 0 176.38 0 176.38-1.9ZM162.18-1.9L165.88-1.9 165.88 0 162.18 0 162.18-1.9ZM159.18-25.35L164.28-25.35 163.73-21.45 159.98-22.25Q159.58-22.35 159.38-22.6 159.18-22.85 159.18-23.3L159.18-23.3 159.18-25.35ZM164.08-25.35L169.18-25.35 169.18-23.3Q169.18-22.85 168.98-22.6 168.78-22.35 168.38-22.25L168.38-22.25 164.63-21.45 164.08-25.35ZM173.33-25.35L178.43-25.35 177.88-21.45 174.13-22.25Q173.73-22.35 173.53-22.6 173.33-22.85 173.33-23.3L173.33-23.3 173.33-25.35ZM178.23-25.35L183.33-25.35 183.33-23.3Q183.33-22.85 183.13-22.6 182.93-22.35 182.53-22.25L182.53-22.25 178.78-21.45 178.23-25.35ZM183.68 0L178.58 0 179.13-3.9 182.88-3.1Q183.28-3.05 183.48-2.78 183.68-2.5 183.68-2.05L183.68-2.05 183.68 0ZM168.98 0L163.88 0 164.43-3.9 168.18-3.1Q168.58-3.05 168.78-2.78 168.98-2.5 168.98-2.05L168.98-2.05 168.98 0ZM164.08 0L158.98 0 158.98-2.05Q158.98-2.5 159.18-2.78 159.38-3.05 159.78-3.1L159.78-3.1 163.53-3.9 164.08 0ZM178.83 0L173.73 0 173.73-2.05Q173.73-2.5 173.93-2.78 174.13-3.05 174.53-3.1L174.53-3.1 178.28-3.9 178.83 0ZM190.53 0.4L190.53 0.4Q189.28 0.4 188.36-0.53 187.43-1.45 187.43-2.75L187.43-2.75Q187.43-4.05 188.36-4.98 189.28-5.9 190.53-5.9L190.53-5.9Q191.83-5.9 192.75-4.98 193.68-4.05 193.68-2.75L193.68-2.75Q193.68-1.45 192.75-0.53 191.83 0.4 190.53 0.4ZM208.83 0.35L208.83 0.35Q205.53 0.35 203-1.28 200.48-2.9 199.05-5.85 197.63-8.8 197.63-12.7L197.63-12.7Q197.63-16.5 198.98-19.45 200.33-22.4 202.98-24.08 205.63-25.75 209.58-25.75L209.58-25.75Q211.13-25.75 213.18-25.23 215.23-24.7 217.08-23.95L217.08-23.95 217.08-21.25 214.48-21.4Q213.48-21.75 212.35-22 211.23-22.25 209.83-22.25L209.83-22.25Q207.28-22.25 205.6-21.08 203.93-19.9 203.08-17.75 202.23-15.6 202.23-12.7L202.23-12.7Q202.23-8.35 204.13-5.73 206.03-3.1 209.58-3.1L209.58-3.1Q211.53-3.1 212.78-3.73 214.03-4.35 214.83-4.98 215.63-5.6 216.08-5.6L216.08-5.6Q216.33-5.6 216.55-5.5 216.78-5.4 216.93-5.2L216.93-5.2 218.18-3.55Q216.53-1.55 214.08-0.6 211.63 0.35 208.83 0.35ZM214.38-18.15L213.88-21.9 217.08-21.25 217.08-17.35 215.43-17.35Q214.93-17.35 214.68-17.57 214.43-17.8 214.38-18.15L214.38-18.15ZM233.38-25.75L233.38-25.75Q237.18-25.75 239.85-24.13 242.53-22.5 243.98-19.55 245.43-16.6 245.43-12.7L245.43-12.7Q245.43-8.8 243.98-5.85 242.53-2.9 239.85-1.28 237.18 0.35 233.38 0.35L233.38 0.35Q229.68 0.35 226.95-1.28 224.23-2.9 222.75-5.85 221.28-8.8 221.28-12.7L221.28-12.7Q221.28-16.6 222.75-19.55 224.23-22.5 226.95-24.13 229.68-25.75 233.38-25.75ZM233.38-3.15L233.38-3.15Q237.13-3.15 238.98-5.65 240.83-8.15 240.83-12.65L240.83-12.65Q240.83-15.7 240-17.82 239.18-19.95 237.53-21.1 235.88-22.25 233.38-22.25L233.38-22.25Q230.83-22.25 229.15-21.08 227.48-19.9 226.68-17.75 225.88-15.6 225.88-12.65L225.88-12.65Q225.88-8.3 227.73-5.73 229.58-3.15 233.38-3.15ZM256.57 0L252.12 0 252.12-25.35 254.77-25.35Q255.77-25.35 255.97-24.4L255.97-24.4 256.32-21.8Q257.72-23.55 259.45-24.65 261.17-25.75 263.47-25.75L263.47-25.75Q266.07-25.75 267.65-24.33 269.22-22.9 269.92-20.45L269.92-20.45Q270.97-23.15 273.2-24.45 275.42-25.75 278.02-25.75L278.02-25.75Q282.07-25.75 284.27-23.18 286.47-20.6 286.47-16.15L286.47-16.15 286.47 0 282.02 0 282.02-16.15Q282.02-19.1 280.72-20.65 279.42-22.2 276.92-22.2L276.92-22.2Q274.62-22.2 273.05-20.58 271.47-18.95 271.47-16.15L271.47-16.15 271.47 0 267.02 0 267.02-16.15Q267.02-19.2 265.8-20.7 264.57-22.2 262.22-22.2L262.22-22.2Q260.57-22.2 259.17-21.3 257.77-20.4 256.57-18.9L256.57-18.9 256.57 0ZM253.62 0L248.52 0 248.52-2.05Q248.52-2.5 248.72-2.78 248.92-3.05 249.32-3.1L249.32-3.1 253.07-3.9 253.62 0ZM260.17 0L255.07 0 255.62-3.9 259.37-3.1Q259.77-3.05 259.97-2.78 260.17-2.5 260.17-2.05L260.17-2.05 260.17 0ZM275.07 0L269.97 0 270.52-3.9 274.27-3.1Q274.67-3.05 274.87-2.78 275.07-2.5 275.07-2.05L275.07-2.05 275.07 0ZM248.52-25.35L253.62-25.35 253.07-21.45 249.32-22.25Q248.92-22.35 248.72-22.6 248.52-22.85 248.52-23.3L248.52-23.3 248.52-25.35ZM290.07 0L284.97 0 285.52-3.9 289.27-3.1Q289.67-3.05 289.87-2.78 290.07-2.5 290.07-2.05L290.07-2.05 290.07 0Z" opacity="1" transform="matrix(1,0,0,1,0,0)" fill="#6b7280" class="wordmark-text-0" data-fill-palette-color="primary" id="text-0"></path></svg></g></svg></g><g transform="matrix(1,0,0,1,0,81.308772246576)"><svg viewBox="0 0 232.209792 30.9613056" height="30.9613056" width="232.209792"><g transform="matrix(1,0,0,1,0,0)"><svg width="232.209792" viewBox="2.65 -25.35 193.48 25.8" height="30.9613056" data-palette-color="#d19c97"><path d="M9.55 0.45Q7.8 0.45 6.33 0.15 4.85-0.15 3.98-0.48 3.1-0.8 2.9-0.9L2.9-0.9 2.65-1.35Q2.7-1.6 2.83-2.48 2.95-3.35 3.08-4.93 3.2-6.5 3.2-8.1L3.2-8.1 5.45-8.3Q5.45-5.6 5.88-4.28 6.3-2.95 7.35-2.45 8.4-1.95 10.55-1.95L10.55-1.95Q12.95-1.95 14.43-3 15.9-4.05 15.9-5.8L15.9-5.8Q15.9-6.95 15.08-7.83 14.25-8.7 13.18-9.3 12.1-9.9 9.75-11.05L9.75-11.05Q6.55-12.6 4.83-14.1 3.1-15.6 3.1-17.95L3.1-17.95Q3.1-20.05 4.38-21.75 5.65-23.45 7.9-24.4 10.15-25.35 12.9-25.35L12.9-25.35Q14.55-25.35 16-25.15 17.45-24.95 18.3-24.73 19.15-24.5 19.35-24.4L19.35-24.4 19.55-24.05Q19.45-23.5 19.1-21.58 18.75-19.65 18.6-17.45L18.6-17.45 16.65-17.25 16.35-17.45Q16.35-17.6 16.4-18.07 16.45-18.55 16.45-19.25L16.45-19.25Q16.45-21.2 15.43-21.98 14.4-22.75 11.8-22.75L11.8-22.75Q9.7-22.75 8.33-21.78 6.95-20.8 6.95-19.3L6.95-19.3Q6.95-17.8 8.33-16.75 9.7-15.7 12.5-14.35L12.5-14.35Q14.95-13.2 16.43-12.35 17.9-11.5 18.95-10.2 20-8.9 20-7.2L20-7.2Q20-4.95 18.68-3.23 17.35-1.5 14.98-0.53 12.6 0.45 9.55 0.45L9.55 0.45ZM36.8 0.45Q32.35 0.45 30.02-1.75 27.7-3.95 27.7-8.1L27.7-8.1 27.7-20.85Q27.7-22.1 27.4-22.53 27.1-22.95 26.2-22.95L26.2-22.95 24.85-22.9 24.75-23.05 25.05-25Q25.6-25 27.05-24.95 28.5-24.9 30-24.9L30-24.9Q31.1-24.9 32.55-25.03 34-25.15 34.45-25.2L34.45-25.2 34.25-23.2Q32.8-23 32.3-22.55 31.8-22.1 31.7-21L31.7-21 31.4-9.55Q31.4-6 33.05-4.08 34.7-2.15 37.8-2.15L37.8-2.15Q40.95-2.15 42.57-3.73 44.2-5.3 44.2-8.3L44.2-8.3Q44.2-11.4 44.12-15.33 44.05-19.25 44-20.85L44-20.85Q43.9-22.2 43.65-22.58 43.4-22.95 42.55-22.95L42.55-22.95 40.85-22.9 40.8-23.05 41.1-25Q41.6-25 42.97-24.95 44.35-24.9 45.75-24.9L45.75-24.9Q46.9-24.9 48.22-25.03 49.55-25.15 49.95-25.2L49.95-25.2 49.8-23.2Q48.05-22.95 47.55-22.55 47.05-22.15 47.05-21.05L47.05-21.05 47.05-8.25Q47.05-4.1 44.37-1.83 41.7 0.45 36.8 0.45L36.8 0.45ZM54.6 0.3L54.9-1.75Q56.65-2.05 57.22-2.68 57.8-3.3 57.8-4.95L57.8-4.95 57.85-20.85Q57.85-22.1 57.55-22.53 57.25-22.95 56.4-22.95L56.4-22.95 55-22.9 54.85-23.1 55.15-25Q55.4-25 56.62-24.95 57.85-24.9 59.85-24.9L59.85-24.9Q61.2-24.9 62.9-24.98 64.6-25.05 65.3-25.05L65.3-25.05Q69.8-25.05 72.07-23.15 74.35-21.25 74.35-17.95L74.35-17.95Q74.35-15.75 73-13.75 71.65-11.75 69.47-10.53 67.3-9.3 64.85-9.3L64.85-9.3 61.4-9.3 61.35-5.8Q61.35-4.05 61.47-3.28 61.6-2.5 61.95-2.25 62.3-2 63.15-2L63.15-2Q63.8-2 64.45-2.05 65.1-2.1 65.3-2.1L65.3-2.1 65.4-1.9 65 0.1Q64.55 0.1 63.35 0.05 62.15 0 60.9 0L60.9 0Q59.25 0 56.95 0.1 54.65 0.2 54.6 0.3L54.6 0.3ZM65.65-11.45Q70.3-12.2 70.3-17.25L70.3-17.25Q70.3-20.05 68.55-21.38 66.8-22.7 63-22.7L63-22.7Q62.3-22.7 62.15-22.63 62-22.55 61.95-22.1L61.95-22.1Q61.55-15.75 61.5-12L61.5-12 65.65-11.45ZM78.34 0.4L78.59-1.7Q80.44-1.9 81.09-2.6 81.74-3.3 81.74-5L81.74-5 81.79-20.85Q81.79-22.1 81.49-22.53 81.19-22.95 80.29-22.95L80.29-22.95 78.94-22.9 78.84-23.1 79.14-25Q79.74-25 81.49-24.95 83.24-24.9 85.29-24.9L85.29-24.9Q93.64-24.9 97.64-25.35L97.64-25.35 97.79-25.1Q97.69-24.55 97.34-22.6 96.99-20.65 96.84-18.4L96.84-18.4 94.44-18.2Q94.44-18.4 94.49-18.88 94.54-19.35 94.54-19.85L94.54-19.85Q94.54-21.15 94.17-21.68 93.79-22.2 92.62-22.38 91.44-22.55 88.54-22.55L88.54-22.55Q87.19-22.55 86.69-22.48 86.19-22.4 86.04-22.13 85.89-21.85 85.84-21.1L85.84-21.1 85.54-14 89.64-13.95Q90.54-13.95 92.29-14.13 94.04-14.3 94.59-14.35L94.59-14.35 94.79-14.1 94.19-11.5Q93.64-11.5 92.02-11.55 90.39-11.6 88.59-11.6L88.59-11.6Q87.19-11.6 85.44-11.35L85.44-11.35Q85.29-7.55 85.29-4.5L85.29-4.5Q85.29-3.35 85.47-2.9 85.64-2.45 86.27-2.3 86.89-2.15 88.34-2.15L88.34-2.15Q91.59-2.15 92.99-2.45 94.39-2.75 94.97-3.68 95.54-4.6 95.89-6.85L95.89-6.85 98.09-7.05 98.29-6.8Q98.14-6.25 97.77-4.23 97.39-2.2 97.19 0L97.19 0 96.89 0.25Q95.54 0.2 91.29 0.1 87.04 0 84.39 0L84.39 0Q82.34 0 80.59 0.18 78.84 0.35 78.34 0.4L78.34 0.4ZM104.09 0.4L104.39-1.7Q105.99-1.95 106.57-2.63 107.14-3.3 107.14-5L107.14-5 107.19-20.85Q107.19-22.1 106.89-22.53 106.59-22.95 105.69-22.95L105.69-22.95 104.34-22.9 104.19-23.1 104.49-25Q104.74-25 105.99-24.95 107.24-24.9 109.34-24.9L109.34-24.9Q110.44-24.9 112.07-25.05 113.69-25.2 114.19-25.25L114.19-25.25 113.99-23.15Q112.64-23 112.09-22.68 111.54-22.35 111.44-21.85 111.34-21.35 111.19-19.8L111.19-19.8Q110.69-13.1 110.69-4.95L110.69-4.95Q110.69-3.7 110.92-3.13 111.14-2.55 111.82-2.35 112.49-2.15 113.94-2.15L113.94-2.15Q116.34-2.15 117.47-2.55 118.59-2.95 119.17-4.13 119.74-5.3 120.19-7.85L120.19-7.85 122.39-8.1 122.54-7.8Q122.44-7.15 122.07-4.83 121.69-2.5 121.39 0.05L121.39 0.05 121.14 0.35Q119.99 0.3 116.27 0.15 112.54 0 109.99 0L109.99 0Q107.99 0 106.27 0.18 104.54 0.35 104.09 0.4L104.09 0.4ZM125.19 0.4L125.49-1.7Q127.09-1.95 127.66-2.63 128.24-3.3 128.24-5L128.24-5 128.29-20.85Q128.29-22.1 127.99-22.53 127.69-22.95 126.79-22.95L126.79-22.95 125.44-22.9 125.29-23.1 125.59-25Q125.84-25 127.09-24.95 128.34-24.9 130.44-24.9L130.44-24.9Q131.54-24.9 133.16-25.05 134.79-25.2 135.29-25.25L135.29-25.25 135.09-23.15Q133.74-23 133.19-22.68 132.64-22.35 132.54-21.85 132.44-21.35 132.29-19.8L132.29-19.8Q131.79-13.1 131.79-4.95L131.79-4.95Q131.79-3.7 132.01-3.13 132.24-2.55 132.91-2.35 133.59-2.15 135.04-2.15L135.04-2.15Q137.44-2.15 138.56-2.55 139.69-2.95 140.26-4.13 140.84-5.3 141.29-7.85L141.29-7.85 143.49-8.1 143.64-7.8Q143.54-7.15 143.16-4.83 142.79-2.5 142.49 0.05L142.49 0.05 142.24 0.35Q141.09 0.3 137.36 0.15 133.64 0 131.09 0L131.09 0Q129.09 0 127.36 0.18 125.64 0.35 125.19 0.4L125.19 0.4ZM145.94 0.4L146.19-1.7Q148.04-1.9 148.69-2.6 149.34-3.3 149.34-5L149.34-5 149.39-20.85Q149.39-22.1 149.09-22.53 148.79-22.95 147.89-22.95L147.89-22.95 146.54-22.9 146.44-23.1 146.74-25Q147.34-25 149.09-24.95 150.84-24.9 152.89-24.9L152.89-24.9Q161.24-24.9 165.24-25.35L165.24-25.35 165.39-25.1Q165.29-24.55 164.94-22.6 164.59-20.65 164.44-18.4L164.44-18.4 162.04-18.2Q162.04-18.4 162.09-18.88 162.14-19.35 162.14-19.85L162.14-19.85Q162.14-21.15 161.76-21.68 161.39-22.2 160.21-22.38 159.04-22.55 156.14-22.55L156.14-22.55Q154.79-22.55 154.29-22.48 153.79-22.4 153.64-22.13 153.49-21.85 153.44-21.1L153.44-21.1 153.14-14 157.24-13.95Q158.14-13.95 159.89-14.13 161.64-14.3 162.19-14.35L162.19-14.35 162.39-14.1 161.79-11.5Q161.24-11.5 159.61-11.55 157.99-11.6 156.19-11.6L156.19-11.6Q154.79-11.6 153.04-11.35L153.04-11.35Q152.89-7.55 152.89-4.5L152.89-4.5Q152.89-3.35 153.06-2.9 153.24-2.45 153.86-2.3 154.49-2.15 155.94-2.15L155.94-2.15Q159.19-2.15 160.59-2.45 161.99-2.75 162.56-3.68 163.14-4.6 163.49-6.85L163.49-6.85 165.69-7.05 165.89-6.8Q165.74-6.25 165.36-4.23 164.99-2.2 164.79 0L164.79 0 164.49 0.25Q163.14 0.2 158.89 0.1 154.64 0 151.99 0L151.99 0Q149.94 0 148.19 0.18 146.44 0.35 145.94 0.4L145.94 0.4ZM176.33-24.9Q178.23-24.9 179.93-25.03 181.63-25.15 182.08-25.2L182.08-25.2 182.18-24.9 182.03-23.25Q180.48-23.2 179.76-22.88 179.03-22.55 179.03-21.95L179.03-21.95Q179.03-21.45 180.11-19.83 181.18-18.2 183.43-15L183.43-15 184.98-16.95Q185.23-17.3 186.31-18.65 187.38-20 187.93-20.88 188.48-21.75 188.48-22.1L188.48-22.1Q188.48-22.6 187.93-22.85 187.38-23.1 186.18-23.2L186.18-23.2 186.08-23.35 186.33-25.15Q186.58-25.15 188.26-25.03 189.93-24.9 191.08-24.9L191.08-24.9Q192.43-24.9 193.63-24.95 194.83-25 195.23-25.05L195.23-25.05 195.38-24.75 195.13-23.05Q193.33-22.6 192.33-21.83 191.33-21.05 189.58-18.95L189.58-18.95 184.78-13.05 190.48-5.25Q191.63-3.7 192.91-2.93 194.18-2.15 196.03-2L196.03-2 196.13-1.85 195.83 0.1Q195.28 0.1 193.78 0.05 192.28 0 190.68 0L190.68 0Q189.28 0 187.03 0.13 184.78 0.25 184.08 0.3L184.08 0.3 183.93 0 184.08-1.75Q185.63-1.85 186.36-2.13 187.08-2.4 187.08-3.05L187.08-3.05Q187.08-3.35 186.86-3.78 186.63-4.2 186.28-4.65L186.28-4.65 182.03-10.6 178.53-6.2Q177.43-4.8 177.03-4.15 176.63-3.5 176.63-3L176.63-3Q176.63-2 178.88-1.85L178.88-1.85 179.03-1.65 178.73 0.25Q178.23 0.2 176.61 0.1 174.98 0 174.03 0L174.03 0Q172.68 0 171.46 0.05 170.23 0.1 169.78 0.15L169.78 0.15 169.63-0.15 169.88-2Q171.48-2.45 172.93-3.7 174.38-4.95 176.38-7.3L176.38-7.3 180.78-12.55 175.63-19.75Q174.58-21.2 173.28-21.98 171.98-22.75 170.13-23L170.13-23 170.03-23.2 170.28-25Q170.93-25 172.71-24.95 174.48-24.9 176.33-24.9L176.33-24.9Z" opacity="1" transform="matrix(1,0,0,1,0,0)" fill="#d19c97" class="slogan-text-1" data-fill-palette-color="secondary" id="text-1"></path></svg></g></svg></g></svg></g></svg></g><g><svg viewBox="0 0 153.8551441449774 223.38152848977532" height="223.38152848977532" width="153.8551441449774"><g><svg xmlns="http://www.w3.org/2000/svg" xml:space="preserve" version="1.0" viewBox="17.106 5.177 61.844 89.791" x="0" y="0" height="223.38152848977532" width="153.8551441449774" class="icon-icon-0" data-fill-palette-color="accent" id="icon-0"><circle cx="47.585" cy="58.897" r="3.5" fill="#d19c97" data-fill-palette-color="accent"></circle><circle cx="47.585" cy="80.847" r="3.5" fill="#d19c97" data-fill-palette-color="accent"></circle><path d="M65.696 33.726H58.05V45.39H17.106v49.578H78.95V45.39H65.696z m6.447 54.794H23.026V73.172h49.117z m0-37.297v15.349H23.026v-15.35zM67.926 5.177H55.821l-10.527 23.33h32.25z" fill="#d19c97" data-fill-palette-color="accent"></path></svg></g></svg></g></svg></g><defs></defs></svg><rect width="395.52" height="156.07439291371747" fill="none" stroke="none" visibility="hidden"></rect></g></svg></g></svg>